<?xml version="1.0" encoding="utf-8"?>
<!-- Generator: Adobe Illustrator 16.0.0, SVG Export Plug-In . SVG Version: 6.00 Build 0)  -->
<!DOCTYPE svg PUBLIC "-//W3C//DTD SVG 1.1//EN" "http://www.w3.org/Graphics/SVG/1.1/DTD/svg11.dtd">
<svg version="1.1" id="图层_1" xmlns="http://www.w3.org/2000/svg" xmlns:xlink="http://www.w3.org/1999/xlink" x="0px" y="0px"
	 width="70.5px" height="70.805px" viewBox="0 0 70.5 70.805" enable-background="new 0 0 70.5 70.805" xml:space="preserve">
<path d="M70.5,16.716H0v39.593c0,8.008,7.574,14.496,16.744,14.496h36.96c9.167,0,16.796-6.488,16.796-14.496V16.716z"/>
<path fill="none" d="M69.209,17.293c0,7.75-7.195,14.031-16.07,14.031H17.361c-8.876,0-16.069-6.281-16.069-14.031v-2.012
	c0-7.749,7.193-14.031,16.069-14.031h35.778c8.875,0,16.069,6.282,16.069,14.031L69.209,17.293L69.209,17.293z"/>
<g>
	<path fill="#FFDE00" d="M69.209,17.293c0,7.75-7.195,14.031-16.07,14.031H17.361c-8.876,0-16.069-6.281-16.069-14.031v-2.012
		c0-7.749,7.193-14.031,16.069-14.031h35.778c8.875,0,16.069,6.282,16.069,14.031L69.209,17.293L69.209,17.293z"/>
	<path d="M53.139,32.574H17.361c-9.55,0-17.319-6.854-17.319-15.281v-2.012C0.042,6.855,7.812,0,17.361,0h35.778
		c9.549,0,17.319,6.855,17.319,15.281v2.012C70.459,25.719,62.688,32.574,53.139,32.574z M17.361,2.5
		C9.19,2.5,2.542,8.233,2.542,15.281v2.012c0,7.048,6.648,12.781,14.819,12.781h35.778c8.172,0,14.819-5.733,14.819-12.781v-2.012
		c0-7.048-6.647-12.781-14.819-12.781H17.361z"/>
</g>
<g>
	<rect x="9.711" y="15.037" width="17.672" height="2.5"/>
	<rect x="44.043" y="15.037" width="17.67" height="2.5"/>
</g>
<rect x="34.148" y="0.982" width="2.5" height="30.611"/>
<g>
	<rect x="7.197" y="44.746" fill="#F7F8F8" width="0.582" height="6.757"/>
	<rect x="10.173" y="44.746" fill="#F7F8F8" width="0.582" height="6.757"/>
	<polygon fill="#F7F8F8" points="15.313,50.679 12.172,46.795 11.719,47.162 15.229,51.502 15.894,51.502 15.894,44.746 
		15.313,44.746 	"/>
	<rect x="18.479" y="44.746" fill="#F7F8F8" width="0.582" height="6.757"/>
	<polygon fill="#F7F8F8" points="23.607,47.835 20.006,47.835 20.006,48.417 23.607,48.417 23.607,51.502 24.188,51.502 
		24.188,44.746 23.607,44.746 	"/>
	<polygon fill="#F7F8F8" points="26.86,45.06 26.86,51.538 27.15,51.538 32.118,51.538 32.118,50.957 27.441,50.957 27.441,45.351 
		32.118,45.351 32.118,44.769 27.15,44.769 	"/>
	<rect x="28.365" y="47.835" fill="#F7F8F8" width="3.32" height="0.581"/>
	<polygon fill="#F7F8F8" points="49.146,45.06 49.146,51.538 49.438,51.538 54.445,51.538 54.445,50.957 49.727,50.957 
		49.727,45.351 54.445,45.351 54.445,44.769 49.438,44.769 	"/>
	<rect x="50.695" y="47.835" fill="#F7F8F8" width="3.316" height="0.581"/>
	<rect x="43.712" y="45.873" fill="#F7F8F8" width="0.582" height="5.63"/>
	<rect x="41.124" y="44.769" fill="#F7F8F8" width="5.758" height="0.582"/>
	<path fill="#F7F8F8" d="M62.7,48.432V45.06l-0.291-0.291h-5.126l-0.29,0.291v6.46h0.581v-3.088h2.053l2.616,3.271l0.454-0.364
		l-2.325-2.905h2.037L62.7,48.432L62.7,48.432z M62.118,47.851h-4.544v-2.5h4.544V47.851z"/>
	<polygon fill="#F7F8F8" points="36.84,44.736 33.943,51.447 34.477,51.679 37.105,45.585 39.734,51.679 40.271,51.447 
		37.374,44.736 	"/>
	<circle fill="#F7F8F8" cx="37.107" cy="49.511" r="0.57"/>
</g>
</svg>
